<svg width="14" height="12" viewBox="0 0 14 12" fill="none" xmlns="http://www.w3.org/2000/svg">
<path fill-rule="evenodd" clip-rule="evenodd" d="M13.8507 5.74635C13.8507 5.58773 13.7986 5.43561 13.7059 5.32344C13.6131 5.21128 13.4873 5.14827 13.3561 5.14827H1.68958L4.80283 1.38513C4.84882 1.32953 4.8853 1.26351 4.91019 1.19086C4.93508 1.1182 4.94789 1.04033 4.94789 0.961692C4.94789 0.883052 4.93508 0.805181 4.91019 0.732527C4.8853 0.659872 4.84882 0.593857 4.80283 0.538249C4.75684 0.482642 4.70224 0.438532 4.64216 0.408438C4.58207 0.378343 4.51767 0.362854 4.45263 0.362854C4.38759 0.362854 4.32319 0.378343 4.2631 0.408438C4.20301 0.438532 4.14841 0.482642 4.10242 0.538249L0.145319 5.32291C0.0992546 5.37847 0.0627079 5.44447 0.0377718 5.51713C0.0128357 5.58979 0 5.66768 0 5.74635C0 5.82502 0.0128357 5.90292 0.0377718 5.97558C0.0627079 6.04824 0.0992546 6.11424 0.145319 6.1698L4.10242 10.9545C4.14841 11.0101 4.20301 11.0542 4.2631 11.0843C4.32319 11.1144 4.38759 11.1299 4.45263 11.1299C4.51767 11.1299 4.58207 11.1144 4.64216 11.0843C4.70224 11.0542 4.75684 11.0101 4.80283 10.9545C4.84882 10.8988 4.8853 10.8328 4.91019 10.7602C4.93508 10.6875 4.94789 10.6097 4.94789 10.531C4.94789 10.4524 4.93508 10.3745 4.91019 10.3018C4.8853 10.2292 4.84882 10.1632 4.80283 10.1076L1.68958 6.34444H13.3561C13.4873 6.34444 13.6131 6.28142 13.7059 6.16926C13.7986 6.0571 13.8507 5.90497 13.8507 5.74635Z" fill="#A9A9A9"/>
</svg>
