<svg width="22" height="25" viewBox="0 0 22 25" fill="none" xmlns="http://www.w3.org/2000/svg">
<path d="M11 1.53125C11.9946 1.53125 12.9484 1.93457 13.6517 2.65248C14.3549 3.37039 14.75 4.34409 14.75 5.35938V6.125H7.25V5.35938C7.25 4.34409 7.64509 3.37039 8.34835 2.65248C9.05161 1.93457 10.0054 1.53125 11 1.53125ZM16.25 6.125V5.35938C16.25 3.93798 15.6969 2.5748 14.7123 1.56972C13.7277 0.564647 12.3924 0 11 0C9.60761 0 8.27226 0.564647 7.28769 1.56972C6.30312 2.5748 5.75 3.93798 5.75 5.35938V6.125H0.5V21.4375C0.5 22.2497 0.816071 23.0287 1.37868 23.603C1.94129 24.1773 2.70435 24.5 3.5 24.5H18.5C19.2956 24.5 20.0587 24.1773 20.6213 23.603C21.1839 23.0287 21.5 22.2497 21.5 21.4375V6.125H16.25ZM2 7.65625H20V21.4375C20 21.8436 19.842 22.2331 19.5607 22.5203C19.2794 22.8074 18.8978 22.9688 18.5 22.9688H3.5C3.10218 22.9688 2.72064 22.8074 2.43934 22.5203C2.15804 22.2331 2 21.8436 2 21.4375V7.65625Z" fill="black"/>
</svg>
