<svg width="28" height="28" viewBox="0 0 28 28" fill="none" xmlns="http://www.w3.org/2000/svg">
<path d="M25.6666 25.6666L19 19M12.3333 22.3333C11.0201 22.3333 9.71973 22.0747 8.50648 21.5721C7.29322 21.0696 6.19083 20.333 5.26225 19.4044C4.33366 18.4758 3.59706 17.3734 3.09452 16.1601C2.59197 14.9469 2.33331 13.6465 2.33331 12.3333C2.33331 11.0201 2.59197 9.71973 3.09452 8.50648C3.59706 7.29322 4.33366 6.19083 5.26225 5.26225C6.19083 4.33366 7.29322 3.59706 8.50648 3.09452C9.71973 2.59197 11.0201 2.33331 12.3333 2.33331C14.9855 2.33331 17.529 3.38688 19.4044 5.26225C21.2797 7.13761 22.3333 9.68115 22.3333 12.3333C22.3333 14.9855 21.2797 17.529 19.4044 19.4044C17.529 21.2797 14.9855 22.3333 12.3333 22.3333Z" stroke="black" stroke-width="1.5"/>
</svg>
